# xmcd CD database file
#
# Track frame offsets:
#	182
#	20637
#	49357
#	51610
#	73910
#	95297
#	123400
#	139552
#	141045
#	165687
#	199325
#
# Disc length: 3014 seconds
#
# Revision: 6
# Processed by: cddbd v1.5.2PL0 Copyright (c) Steve Scherf et al.
# Submitted via: ACXtractor (MTCDDB.DLL V2003.07.15)
#
DISCID=aa0bc40b
DTITLE=Lightnin' Hopkins - It's A Sin To Be Rich
DYEAR=1972
DGENRE=Blues
TTITLE0=Roberta
TTITLE1=Katie Mae
TTITLE2=Howlin' Wolf
TTITLE3=The Rehearsal
TTITLE4=It's A Sin To Be Rich, It's A Lowdown Shame To Be Poor
TTITLE5=Y'all Escuse Me
TTITLE6=Just Out Of Louisiana
TTITLE7=Get Out Your Pencil
TTITLE8=I Forgot To Pull My Shoes Off
TTITLE9=Turn Me On
TTITLE10=Candy Kitchen
EXTD=ID3G:   0 YEAR: 1972
EXTT0=
EXTT1=
EXTT2=
EXTT3=
EXTT4=
EXTT5=
EXTT6=
EXTT7=
EXTT8=
EXTT9=
EXTT10=
PLAYORDER=
